<svg xmlns="http://www.w3.org/2000/svg" viewBox="0 0 655 806" width="120" height="148">
  <style>
    path { fill: #000000; }
    @media (prefers-color-scheme: dark) {
      path { fill: #ffffff; }
    }
  </style>
  <path d="M95.2598 246.86C96.3278 235.873 97.7737 221 104.246 221C106.746 221 111.746 222.4 111.746 228C111.746 235 111.59 249.675 104.246 278C97.2462 305 107.746 398.5 111.746 432.5C115.746 466.5 139.038 608.336 144.746 626.5C150.246 644 164.448 673.918 171.746 680C180.746 687.5 209.518 727.968 219.746 749.5C229.246 769.5 240.746 780 249.746 786C258.746 792 382.207 795.577 389.746 794.5L389.969 794.468C400.304 792.992 404.348 792.415 410.746 780.5C417.803 767.359 435.246 735.5 436.246 731.5C437.246 727.5 451.146 695 460.746 685C472.746 672.5 481.246 650 489.246 639.5C496.99 629.337 503.746 615.5 512.746 591.5C518.197 576.964 519.264 573.391 520.746 564.5C522.246 555.5 538.746 458 539.746 444.5C540.746 431 543.746 408 545.746 371C546.754 352.359 550.096 244.24 552.746 240C555.246 236 559.246 238 560.746 239C562.246 240 562.746 244 562.746 248.5C562.746 250.562 557.246 320 557.246 340.5C557.246 361 544.864 486.215 541.246 502C535.746 526 530.246 571 523.746 591.5C519.013 606.428 502.246 636 497.746 644.5C493.246 653 477.246 681 464.246 695C456.886 702.926 448.359 724.5 442.302 739C436.246 753.5 421.302 791 407.302 801.5C394.728 809.238 268.302 803.5 248.246 798C228.19 792.5 212.746 766.5 207.246 753.5C201.746 740.5 189.746 723.5 184.746 714.5C179.746 705.5 182.746 707 163.246 690C143.746 673 135.746 642 130.746 624.5C125.746 607 116.746 555.5 116.746 548C116.746 540.5 110.746 491 106.746 477.5C102.746 464 98.2462 401 97.2462 388C96.5166 378.515 93.6878 370.478 91.7462 336.5C89.7462 301.5 90.9303 291.392 95.2462 247L95.2598 246.86Z"/>
  <path d="M416.604 393.934C403.277 389.492 395.544 379.97 395.28 378.386C394.836 375.721 398.834 373.5 401.055 373.5C403.277 373.5 409.052 377.498 416.604 381.94C424.156 386.382 428.598 386.382 437.038 387.271C445.479 388.159 455.696 384.606 459.694 383.717C463.692 382.829 467.246 389.936 467.246 392.157C467.246 394.378 461.471 396.599 457.029 397.932C452.587 399.265 429.931 398.376 416.604 393.934Z"/>
  <path d="M289.058 405.01C287.058 399.41 289.724 398.344 292.058 398.51C302.558 398.51 302.058 405.01 302.558 410.01C302.968 414.113 301.058 435.51 301.058 440.51C301.058 448.01 303.058 465.01 302.558 471.01C302.058 477.01 297.558 494.51 293.558 499.51C290.358 503.51 286.058 503.01 283.558 505.51C280.865 508.203 281.846 513.616 280.058 514.51C278.058 515.51 275.558 517.01 274.058 515.51C271.058 512.51 270.058 504.51 273.058 499.01C274.347 496.646 279.058 496.01 283.558 494.51C288.058 493.01 288.558 486.51 291.558 479.01C294.558 471.51 292.558 416.01 291.558 411.51C291.224 410.01 290.308 408.51 289.058 405.01Z"/>
  <path d="M379.057 516.51C375.857 518.11 369.724 515.177 367.057 513.51C364.557 512.177 358.457 508.31 354.057 503.51C348.557 497.51 342.557 470.51 340.557 459.51C338.557 448.51 340.557 418.01 340.557 406.01C340.557 394.01 342.557 392.51 345.057 392.51C347.557 392.51 350.057 392.01 350.057 398.01V423.01C350.057 445.51 349.057 449.01 351.557 465.51C354.057 482.01 361.558 497.51 365.557 502.01C370.027 507.038 378.057 504.51 380.557 506.01C383.057 507.51 383.057 514.51 379.057 516.51Z"/>
  <path d="M214.146 381.861C204.448 381.136 186.759 369.167 186.31 368.261C185.861 367.354 187.837 365.178 190.351 365.54C193.494 365.994 204.269 370.074 215.044 370.981C225.819 371.887 229.86 370.981 239.737 370.074C249.614 369.167 248.267 367.354 252.757 366.9C256.348 366.538 256.947 369.469 257.246 370.981C257.246 372.794 255.63 376.693 250.961 379.594C245.124 383.221 226.268 382.768 214.146 381.861Z"/>
  <path d="M285.684 652.022C279.284 651.222 264.85 646.855 256.184 640.022C250.684 634.522 258.184 627.522 262.684 630.022C267.184 632.522 276.708 635.103 285.684 638.522C296.184 642.522 349.684 643.022 361.184 643.022C372.684 643.022 383.184 639.022 388.684 637.522C395.684 635.613 405.092 639.168 394.684 650.522C389.184 656.522 376.184 657.522 368.184 659.022C360.413 660.479 293.684 653.022 285.684 652.022Z"/>
  <path d="M188.138 284.144C182.638 282.144 168.512 279.644 167.012 276.644C165.512 273.644 166.412 271.844 168.012 270.644C170.012 269.144 172.638 269.144 176.138 268.644C183.138 267.644 187.638 272.144 194.638 273.144C201.638 274.144 241.265 271.592 248.638 273.144C258.138 275.144 275.53 284.34 278.138 285.644C280.138 286.644 278.173 294.144 274.638 294.144C270.138 294.144 237.138 291.144 229.638 290.644C222.138 290.144 194.577 286.486 188.138 284.144Z"/>
  <path d="M436.138 302.144C425.138 302.144 397.304 300.644 383.638 297.644C381.638 297.205 382.638 288.144 384.638 287.644C389.811 286.351 397.045 288.144 409.138 288.144C422.138 288.144 427.138 285.144 436.138 284.144C446.077 283.04 463.048 282.644 468.638 282.644C475.138 282.644 495.638 290.644 498.138 293.144C500.638 295.644 501.138 299.144 493.138 300.644C485.138 302.144 477.638 296.144 465.638 296.144C453.638 296.144 449.138 302.144 436.138 302.144Z"/>
  <path d="M102.458 431.464C112.531 525.929 112.531 525.929 75.74 529.852C38.9486 533.775 38.9486 533.775 28.8755 439.311C18.8024 344.846 18.8024 344.846 55.5938 340.923C92.3852 337 92.3852 337 102.458 431.464Z"/>
  <path d="M58.4196 438.578C65.839 508.157 65.839 508.157 38.7401 511.046C11.6412 513.936 11.6412 513.936 4.22178 444.358C-3.19762 374.779 -3.19762 374.779 23.9013 371.89C51.0002 369 51.0002 369 58.4196 438.578Z"/>
  <path d="M596.222 438.578C588.802 508.157 588.802 508.157 615.901 511.046C643 513.936 643 513.936 650.42 444.358C657.839 374.779 657.839 374.779 630.74 371.89C603.641 369 603.641 369 596.222 438.578Z"/>
  <path d="M548.875 431.464C538.802 525.929 538.802 525.929 575.594 529.852C612.385 533.775 612.385 533.775 622.458 439.311C632.531 344.846 632.531 344.846 595.74 340.923C558.949 337 558.949 337 548.875 431.464Z"/>
  <path d="M636.119 396.438C647.864 349.902 648.939 301.313 639.266 254.303C629.592 207.294 609.419 163.078 580.254 124.96C551.09 86.8429 513.688 55.8095 470.843 34.1793C427.999 12.549 380.82 0.881306 332.832 0.0480142C284.844 -0.785277 237.289 9.23742 193.719 29.3671C150.15 49.4968 111.693 79.2129 81.2225 116.295C50.7521 153.377 29.0562 196.865 17.7561 243.511C6.45596 290.157 5.84387 338.753 15.9656 385.669L31.5324 382.31C21.9168 337.741 22.4983 291.574 33.2334 247.261C43.9685 202.947 64.5796 161.633 93.5265 126.405C122.473 91.1773 159.007 62.947 200.399 43.8238C241.79 24.7006 286.967 15.179 332.556 15.9706C378.144 16.7623 422.964 27.8466 463.666 48.3953C504.368 68.9441 539.9 98.4258 567.607 134.637C595.313 170.849 614.477 212.854 623.667 257.513C632.858 302.173 631.836 348.332 620.679 392.541L636.119 396.438Z"/>
</svg>
